                                                                        S      1
,,,17Hcapuchon.torre0.2,21HAutodesk Inventor LT ,7Hunknown,32,38,7,99,  G      1
15,,1.,2,2HMM,1,0.08,15H20150921.104022,0.01,10000.,2Hpc,,11,0,15H201506G      2
10.103215;                                                              G      3
     186       1                                                00000000D      1
     186             -95       1       0                               0D      2
     514       2                                                00010000D      3
     514                       1       1                               0D      4
     510       3                                                00010000D      5
     510             -95       1       1                               0D      6
     510       4                                                00010000D      7
     510             -95       1       1                               0D      8
     510       5                                                00010000D      9
     510             -95       1       1                               0D     10
     510       6                                                00010000D     11
     510             -95       1       1                               0D     12
     510       7                                                00010000D     13
     510             -95       1       1                               0D     14
     510       8                                                00010000D     15
     510             -95       1       1                               0D     16
     510       9                                                00010000D     17
     510             -95       1       1                               0D     18
     510      10                                                00010000D     19
     510             -95       1       1                               0D     20
     508      11                                                00010000D     21
     508                       1       1                               0D     22
     508      12                                                00010000D     23
     508                       1       1                               0D     24
     508      13                                                00010000D     25
     508                       1       1                               0D     26
     508      14                                                00010000D     27
     508                       2       1                               0D     28
     508      16                                                00010000D     29
     508                       1       1                               0D     30
     508      17                                                00010000D     31
     508                       2       1                               0D     32
     508      19                                                00010000D     33
     508                       1       1                               0D     34
     508      20                                                00010000D     35
     508                       2       1                               0D     36
     126      22                                                00010000D     37
     126       0               5       0                               0D     38
     126      27                                                00010000D     39
     126       0               4       0                               0D     40
     126      31                                                00010000D     41
     126       0               6       0                               0D     42
     126      37                                                00010000D     43
     126       0               4       0                               0D     44
     126      41                                                00010000D     45
     126       0               2       0                               0D     46
     126      43                                                00010000D     47
     126       0               2       0                               0D     48
     126      45                                                00010000D     49
     126       0               4       0                               0D     50
     126      49                                                00010000D     51
     126       0               2       0                               0D     52
     126      51                                                00010000D     53
     126       0               4       0                               0D     54
     126      55                                                00010000D     55
     126       0               2       0                               0D     56
     126      57                                                00010000D     57
     126       0               6       0                               0D     58
     126      63                                                00010000D     59
     126       0               2       0                               0D     60
     126      65                                                00010000D     61
     126       0               9       0                               0D     62
     126      74                                                00010000D     63
     126       0              10       0                               0D     64
     126      84                                                00010000D     65
     126       0              10       0                               0D     66
     126      94                                                00010000D     67
     126       0               2       0                               0D     68
     126      96                                                00010000D     69
     126       0               9       0                               0D     70
     126     105                                                00010000D     71
     126       0               5       0                               0D     72
     128     110                                                00010000D     73
     128       0     -95       5       0                               0D     74
     128     115                                                00010000D     75
     128       0     -95       5       0                               0D     76
     128     120                                                00010000D     77
     128       0     -95       5       0                               0D     78
     128     125                                                00010000D     79
     128       0     -95      11       0                               0D     80
     128     136                                                00010000D     81
     128       0     -95       2       0                               0D     82
     128     138                                                00010000D     83
     128       0     -95      12       0                               0D     84
     128     150                                                00010000D     85
     128       0     -95       3       0                               0D     86
     128     153                                                00010000D     87
     128       0     -95       7       0                               0D     88
     502     160                                                00010000D     89
     502                       5       1                               0D     90
     504     165                                                00010001D     91
     504                       4       1                               0D     92
     406     169                                                00000000D     93
     406                       1      15                               0D     94
     314     170                                                00000200D     95
     314                       1       0                               0D     96
186,3,1,0,0,1,93;                                                      1P      1
514,8,5,1,7,1,9,1,11,1,13,1,15,1,17,1,19,1;                            3P      2
510,73,1,1,21;                                                         5P      3
510,75,1,1,23;                                                         7P      4
510,77,1,1,25;                                                         9P      5
510,79,1,1,27;                                                        11P      6
510,81,1,1,29;                                                        13P      7
510,83,1,1,31;                                                        15P      8
510,85,1,1,33;                                                        17P      9
510,87,1,1,35;                                                        19P     10
508,4,0,91,1,0,0,0,91,2,0,0,0,91,3,0,0,0,91,4,0,0;                    21P     11
508,4,0,91,5,0,0,0,91,4,1,0,0,91,6,0,0,0,91,7,0,0;                    23P     12
508,4,0,91,8,0,0,0,91,9,0,0,0,91,10,0,0,0,91,2,1,0;                   25P     13
508,8,0,91,8,1,0,0,91,1,1,0,0,91,5,1,0,0,91,11,0,0,0,91,12,1,0,       27P     14
0,91,13,1,0,0,91,12,0,0,0,91,14,0,0;                                  27P     15
508,1,0,91,13,0,0;                                                    29P     16
508,8,0,91,10,1,0,0,91,15,0,0,0,91,16,1,0,0,91,17,0,0,0,91,16,0,      31P     17
0,0,91,18,0,0,0,91,6,1,0,0,91,3,1,0;                                  31P     18
508,1,0,91,17,1,0;                                                    33P     19
508,6,0,91,9,1,0,0,91,14,1,0,0,91,11,1,0,0,91,7,1,0,0,91,18,1,0,      35P     20
0,91,15,1,0;                                                          35P     21
126,2,2,0,0,0,0,1.15927948072741,1.15927948072741,                    37P     22
1.15927948072741,1.98231317286238,1.98231317286238,                   37P     23
1.98231317286238,1.,0.916515138991167,1.,-2.,-4.58257569495584,       37P     24
6.,-5.55111512312578D-16,-5.45544725589981,6.,2.,                     37P     25
-4.58257569495584,6.,1.15927948072741,1.98231317286238,0.,0.,0.;      37P     26
126,1,1,0,0,1,0,0.0727079607655289,0.0727079607655289,                39P     27
0.232916235112594,0.232916235112594,1.,1.,-2.,-6.18465843842649,      39P     28
6.,-2.,-4.58257569495584,6.,0.0727079607655289,                       39P     29
0.232916235112594,0.,0.,0.;                                           39P     30
126,2,2,0,0,0,0,-1.88356304873644,-1.88356304873644,                  41P     31
-1.88356304873644,-1.25802960485335,-1.25802960485335,                41P     32
-1.25802960485335,1.,0.951485913604076,1.,2.,-6.18465843842649,       41P     33
6.,2.22044604925031D-15,-6.83142010519004,6.,-2.,                     41P     34
-6.18465843842649,6.,-1.88356304873644,-1.25802960485335,0.,0.,       41P     35
0.;                                                                   41P     36
126,1,1,0,0,1,0,0.458257569495584,0.458257569495584,                  43P     37
0.618465843842649,0.618465843842649,1.,1.,2.,-4.58257569495584,       43P     38
6.,2.,-6.18465843842649,6.,0.458257569495584,0.618465843842649,       43P     39
0.,0.,0.;                                                             43P     40
126,1,1,0,0,1,0,-0.4,-0.4,0.,0.,1.,1.,2.,-4.58257569495584,6.,        45P     41
2.,-4.58257569495584,10.,-0.4,0.,0.,0.,0.;                            45P     42
126,1,1,0,0,1,0,-1.,-1.,-0.6,-0.6,1.,1.,2.,-6.18465843842649,         47P     43
10.,2.,-6.18465843842649,6.,-1.,-0.6,0.,0.,0.;                        47P     44
126,1,1,0,0,1,0,0.458257569495584,0.458257569495584,                  49P     45
0.618465843842649,0.618465843842649,1.,1.,2.,-4.58257569495584,       49P     46
10.,2.,-6.18465843842649,10.,0.458257569495584,                       49P     47
0.618465843842649,0.,0.,0.;                                           49P     48
126,1,1,0,0,1,0,0.,0.,0.4,0.4,1.,1.,-2.,-4.58257569495584,10.,        51P     49
-2.,-4.58257569495584,6.,0.,0.4,0.,0.,0.;                             51P     50
126,1,1,0,0,1,0,-0.27287894153856,-0.27287894153856,                  53P     51
-0.112670667191495,-0.112670667191495,1.,1.,-2.,                      53P     52
-6.18465843842649,10.,-2.,-4.58257569495584,10.,                      53P     53
-0.27287894153856,-0.112670667191495,0.,0.,0.;                        53P     54
126,1,1,0,0,1,0,0.6,0.6,1.,1.,1.,1.,-2.,-6.18465843842649,6.,         55P     55
-2.,-6.18465843842649,10.,0.6,1.,0.,0.,0.;                            55P     56
126,2,2,0,0,0,0,-3.14159265358979,-3.14159265358979,                  57P     57
-3.14159265358979,-1.98231317286238,-1.98231317286238,                57P     58
-1.98231317286238,1.,0.836660026534075,1.,5.,                         57P     59
-6.12323399573677D-16,10.,5.,-3.27326835353988,10.,2.,                57P     60
-4.58257569495584,10.,-3.14159265358979,-1.98231317286238,0.,0.,      57P     61
0.;                                                                   57P     62
126,1,1,0,0,1,0,0.,0.,1.6,1.6,1.,1.,5.,0.,10.,5.,0.,2.,0.,1.6,        59P     63
0.,0.,0.;                                                             59P     64
126,8,2,0,1,0,0,-3.14159265358979,-3.14159265358979,                  61P     65
-3.14159265358979,-1.5707963267949,-1.5707963267949,0.,0.,            61P     66
1.5707963267949,1.5707963267949,3.14159265358979,                     61P     67
3.14159265358979,3.14159265358979,1.,0.707106781186548,1.,            61P     68
0.707106781186547,1.,0.707106781186547,1.,0.707106781186548,1.,       61P     69
5.,-6.12323399573677D-16,2.,5.,-5.,2.,-3.06161699786838D-16,-5.,      61P     70
2.,-5.,-5.,2.,-5.,0.,2.,-5.,5.,2.,-3.06161699786838D-16,5.,2.,        61P     71
5.,5.,2.,5.,6.12323399573677D-16,2.,-3.14159265358979,                61P     72
3.14159265358979,0.,0.,0.;                                            61P     73
126,6,2,0,0,0,0,-7.44246478790699,-7.44246478790699,                  63P     74
-7.44246478790699,-6.00884074313459,-6.00884074313459,                63P     75
-4.57521669836219,-4.57521669836219,-3.14159265358979,                63P     76
-3.14159265358979,-3.14159265358979,1.,0.753904008780107,1.,          63P     77
0.753904008780108,1.,0.753904008780107,1.,-2.,-4.58257569495584,      63P     78
10.,-5.9934548142374,-2.83968912632453,10.,-4.81301486257154,         63P     79
1.35458035297486,10.,-3.63257491090567,5.54884983227424,10.,          63P     80
0.683712544547161,4.95303312692625,10.,5.,4.35721642157826,10.,       63P     81
5.,-6.12323399573677D-16,10.,-7.44246478790699,                       63P     82
-3.14159265358979,0.,0.,0.;                                           63P     83
126,6,2,0,0,0,0,-3.14159265358979,-3.14159265358979,                  65P     84
-3.14159265358979,-1.67505190077541,-1.67505190077541,                65P     85
-0.20851114796103,-0.20851114796103,1.25802960485335,                 65P     86
1.25802960485335,1.25802960485335,1.,0.742989506560109,1.,            65P     87
0.742989506560109,1.,0.742989506560109,1.,6.5,                        65P     88
7.96020419445779D-16,10.,6.5,5.85535850191351,10.,                    65P     89
0.676434289159639,6.46470700437762,10.,-5.14713142168072,             65P     90
7.07405550684173,10.,-6.35921127767664,1.34552291911739,10.,          65P     91
-7.57129113367257,-4.38300966860695,10.,-2.,-6.18465843842649,        65P     92
10.,-3.14159265358979,1.25802960485335,0.,0.,0.;                      65P     93
126,1,1,0,0,1,0,-1.53846153846154,-1.53846153846154,0.,0.,1.,1.,      67P     94
6.5,0.,10.,6.5,0.,0.,-1.53846153846154,0.,0.,0.,0.;                   67P     95
126,8,2,0,1,0,0,-3.14159265358979,-3.14159265358979,                  69P     96
-3.14159265358979,-1.5707963267949,-1.5707963267949,0.,0.,            69P     97
1.5707963267949,1.5707963267949,3.14159265358979,                     69P     98
3.14159265358979,3.14159265358979,1.,0.707106781186548,1.,            69P     99
0.707106781186547,1.,0.707106781186547,1.,0.707106781186548,1.,       69P    100
6.5,-7.96020419445779D-16,0.,6.5,-6.5,0.,-3.9801020972289D-16,        69P    101
-6.5,0.,-6.5,-6.5,0.,-6.5,0.,0.,-6.5,6.5,0.,                          69P    102
-3.9801020972289D-16,6.5,0.,6.5,6.5,0.,6.5,7.96020419445779D-16,      69P    103
0.,-3.14159265358979,3.14159265358979,0.,0.,0.;                       69P    104
126,2,2,0,0,0,0,-4.39962225844314,-4.39962225844314,                  71P    105
-4.39962225844314,-3.14159265358979,-3.14159265358979,                71P    106
-3.14159265358979,1.,0.808607540062639,1.,2.,-6.18465843842649,       71P    107
10.,6.5,-4.72944468820849,10.,6.5,7.96020419445779D-16,10.,           71P    108
-4.39962225844314,-3.14159265358979,0.,0.,0.;                         71P    109
128,1,1,1,1,0,0,1,0,0,-0.2,-0.2,0.2,0.2,-0.337555108214916,           73P    110
-0.337555108214916,-0.112670667191495,-0.112670667191495,1.,1.,       73P    111
1.,1.,-2.,-6.83142010519004,6.,2.,-6.83142010519004,6.,-2.,           73P    112
-4.58257569495584,6.,2.,-4.58257569495584,6.,-0.2,0.2,                73P    113
-0.337555108214916,-0.112670667191495;                                73P    114
128,1,1,1,1,0,0,1,0,0,0.458257569495584,0.458257569495584,            75P    115
0.618465843842649,0.618465843842649,0.,0.,0.4,0.4,1.,1.,1.,1.,        75P    116
2.,-6.18465843842649,10.,2.,-4.58257569495584,10.,2.,                 75P    117
-6.18465843842649,6.,2.,-4.58257569495584,6.,0.458257569495584,       75P    118
0.618465843842649,0.,0.4;                                             75P    119
128,1,1,1,1,0,0,1,0,0,0.0727079607655289,0.0727079607655289,          77P    120
0.232916235112594,0.232916235112594,0.,0.,0.4,0.4,1.,1.,1.,1.,        77P    121
-2.,-4.58257569495584,10.,-2.,-6.18465843842649,10.,-2.,              77P    122
-4.58257569495584,6.,-2.,-6.18465843842649,6.,                        77P    123
0.0727079607655289,0.232916235112594,0.,0.4;                          77P    124
128,1,8,1,2,0,1,0,0,1,0.,0.,1.6,1.6,-3.14159265358979,                79P    125
-3.14159265358979,-3.14159265358979,-1.5707963267949,                 79P    126
-1.5707963267949,0.,0.,1.5707963267949,1.5707963267949,               79P    127
3.14159265358979,3.14159265358979,3.14159265358979,1.,1.,             79P    128
0.707106781186548,0.707106781186548,1.,1.,0.707106781186548,          79P    129
0.707106781186548,1.,1.,0.707106781186548,0.707106781186548,1.,       79P    130
1.,0.707106781186548,0.707106781186548,1.,1.,5.,0.,10.,5.,0.,2.,      79P    131
5.,-5.,10.,5.,-5.,2.,0.,-5.,10.,0.,-5.,2.,-5.,-5.,10.,-5.,-5.,        79P    132
2.,-5.,0.,10.,-5.,0.,2.,-5.,5.,10.,-5.,5.,2.,0.,5.,10.,0.,5.,2.,      79P    133
5.,5.,10.,5.,5.,2.,5.,0.,10.,5.,0.,2.,0.,1.6,-3.14159265358979,       79P    134
3.14159265358979;                                                     79P    135
128,1,1,1,1,0,0,1,0,0,-0.5,-0.5,0.5,0.5,-0.5,-0.5,0.5,0.5,1.,1.,      81P    136
1.,1.,-5.,-5.,2.,5.,-5.,2.,-5.,5.,2.,5.,5.,2.,-0.5,0.5,-0.5,0.5;      81P    137
128,1,8,1,2,0,1,0,0,1,0.,0.,1.53846153846154,1.53846153846154,        83P    138
-3.14159265358979,-3.14159265358979,-3.14159265358979,                83P    139
-1.5707963267949,-1.5707963267949,0.,0.,1.5707963267949,              83P    140
1.5707963267949,3.14159265358979,3.14159265358979,                    83P    141
3.14159265358979,1.,1.,0.707106781186548,0.707106781186548,1.,        83P    142
1.,0.707106781186548,0.707106781186548,1.,1.,0.707106781186548,       83P    143
0.707106781186548,1.,1.,0.707106781186548,0.707106781186548,1.,       83P    144
1.,6.5,0.,10.,6.5,0.,0.,6.5,6.5,10.,6.5,6.5,0.,0.,6.5,10.,0.,         83P    145
6.5,0.,-6.5,6.5,10.,-6.5,6.5,0.,-6.5,0.,10.,-6.5,0.,0.,-6.5,          83P    146
-6.5,10.,-6.5,-6.5,0.,0.,-6.5,10.,0.,-6.5,0.,6.5,-6.5,10.,6.5,        83P    147
-6.5,0.,6.5,0.,10.,6.5,0.,0.,0.,1.53846153846154,                     83P    148
-3.14159265358979,3.14159265358979;                                   83P    149
128,1,1,1,1,0,0,1,0,0,-0.65,-0.65,0.65,0.65,-0.65,-0.65,0.65,         85P    150
0.65,1.,1.,1.,1.,6.5,-6.5,0.,-6.5,-6.5,0.,6.5,6.5,0.,-6.5,6.5,        85P    151
0.,-0.65,0.65,-0.65,0.65;                                             85P    152
128,1,1,1,1,0,0,1,0,0,-0.757129113367257,-0.757129113367257,          87P    153
0.65,0.65,-0.618465843842649,-0.618465843842649,                      87P    154
0.707405550684173,0.707405550684173,1.,1.,1.,1.,                      87P    155
-7.57129113367257,-6.18465843842649,10.,6.5,-6.18465843842649,        87P    156
10.,-7.57129113367257,7.07405550684173,10.,6.5,7.07405550684173,      87P    157
10.,-0.757129113367257,0.65,-0.618465843842649,                       87P    158
0.707405550684173;                                                    87P    159
502,12,-2.,-4.58257569495584,6.,2.,-4.58257569495584,6.,-2.,          89P    160
-6.18465843842649,6.,2.,-6.18465843842649,6.,2.,                      89P    161
-4.58257569495584,10.,2.,-6.18465843842649,10.,-2.,                   89P    162
-4.58257569495584,10.,-2.,-6.18465843842649,10.,5.,0.,10.,5.,         89P    163
6.12323399573677D-16,2.,6.5,0.,10.,6.5,7.96020419445779D-16,0.;       89P    164
504,18,37,89,1,89,2,39,89,3,89,1,41,89,4,89,3,43,89,2,89,4,45,        91P    165
89,2,89,5,47,89,6,89,4,49,89,5,89,6,51,89,7,89,1,53,89,8,89,7,        91P    166
55,89,3,89,8,57,89,9,89,5,59,89,9,89,10,61,89,10,89,10,63,89,7,       91P    167
89,9,65,89,11,89,8,67,89,11,89,12,69,89,12,89,12,71,89,6,89,11;       91P    168
406,1,6HSolid1;                                                       93P    169
314,74.9019607843137,74.9019607843137,74.9019607843137,;              95P    170
S      1G      3D     96P    170                                        T      1
