                                                                        S      1
,,,8HTORRE0.2,21HAutodesk Inventor LT ,7Hunknown,32,38,7,99,15,,1.,2,2HMG      1
M,1,0.08,15H20150921.103820,0.01,10000.,2Hpc,,11,0,15H20150610.100828;  G      2
     186       1                                                00000000D      1
     186            -197       1       0                               0D      2
     514       2                                                00010000D      3
     514                       2       1                               0D      4
     510       4                                                00010000D      5
     510            -197       1       1                               0D      6
     510       5                                                00010000D      7
     510            -197       1       1                               0D      8
     510       6                                                00010000D      9
     510            -197       1       1                               0D     10
     510       7                                                00010000D     11
     510            -197       1       1                               0D     12
     510       8                                                00010000D     13
     510            -197       1       1                               0D     14
     510       9                                                00010000D     15
     510            -197       1       1                               0D     16
     510      10                                                00010000D     17
     510            -197       1       1                               0D     18
     510      11                                                00010000D     19
     510            -197       1       1                               0D     20
     510      12                                                00010000D     21
     510            -197       1       1                               0D     22
     510      13                                                00010000D     23
     510            -197       1       1                               0D     24
     510      14                                                00010000D     25
     510            -197       1       1                               0D     26
     510      15                                                00010000D     27
     510            -197       1       1                               0D     28
     510      16                                                00010000D     29
     510            -197       1       1                               0D     30
     510      17                                                00010000D     31
     510            -197       1       1                               0D     32
     510      18                                                00010000D     33
     510            -197       1       1                               0D     34
     510      19                                                00010000D     35
     510            -197       1       1                               0D     36
     508      20                                                00010000D     37
     508                       1       1                               0D     38
     508      21                                                00010000D     39
     508                       1       1                               0D     40
     508      22                                                00010000D     41
     508                       2       1                               0D     42
     508      24                                                00010000D     43
     508                       1       1                               0D     44
     508      25                                                00010000D     45
     508                       1       1                               0D     46
     508      26                                                00010000D     47
     508                       2       1                               0D     48
     508      28                                                00010000D     49
     508                       1       1                               0D     50
     508      29                                                00010000D     51
     508                       1       1                               0D     52
     508      30                                                00010000D     53
     508                       1       1                               0D     54
     508      31                                                00010000D     55
     508                       1       1                               0D     56
     508      32                                                00010000D     57
     508                       1       1                               0D     58
     508      33                                                00010000D     59
     508                       1       1                               0D     60
     508      34                                                00010000D     61
     508                       1       1                               0D     62
     508      35                                                00010000D     63
     508                       1       1                               0D     64
     508      36                                                00010000D     65
     508                       1       1                               0D     66
     508      37                                                00010000D     67
     508                       1       1                               0D     68
     508      38                                                00010000D     69
     508                       1       1                               0D     70
     508      39                                                00010000D     71
     508                       1       1                               0D     72
     508      40                                                00010000D     73
     508                       1       1                               0D     74
     508      41                                                00010000D     75
     508                       1       1                               0D     76
     508      42                                                00010000D     77
     508                       1       1                               0D     78
     508      43                                                00010000D     79
     508                       1       1                               0D     80
     508      44                                                00010000D     81
     508                       1       1                               0D     82
     126      45                                                00010000D     83
     126       0               2       0                               0D     84
     126      47                                                00010000D     85
     126       0               4       0                               0D     86
     126      51                                                00010000D     87
     126       0               2       0                               0D     88
     126      53                                                00010000D     89
     126       0               4       0                               0D     90
     126      57                                                00010000D     91
     126       0               2       0                               0D     92
     126      59                                                00010000D     93
     126       0               4       0                               0D     94
     126      63                                                00010000D     95
     126       0               2       0                               0D     96
     126      65                                                00010000D     97
     126       0               4       0                               0D     98
     126      69                                                00010000D     99
     126       0              10       0                               0D    100
     126      79                                                00010000D    101
     126       0               5       0                               0D    102
     126      84                                                00010000D    103
     126       0              12       0                               0D    104
     126      96                                                00010000D    105
     126       0              12       0                               0D    106
     126     108                                                00010000D    107
     126       0              12       0                               0D    108
     126     120                                                00010000D    109
     126       0               5       0                               0D    110
     126     125                                                00010000D    111
     126       0               6       0                               0D    112
     126     131                                                00010000D    113
     126       0               4       0                               0D    114
     126     135                                                00010000D    115
     126       0               6       0                               0D    116
     126     141                                                00010000D    117
     126       0               8       0                               0D    118
     126     149                                                00010000D    119
     126       0               2       0                               0D    120
     126     151                                                00010000D    121
     126       0               8       0                               0D    122
     126     159                                                00010000D    123
     126       0               8       0                               0D    124
     126     167                                                00010000D    125
     126       0               2       0                               0D    126
     126     169                                                00010000D    127
     126       0               8       0                               0D    128
     126     177                                                00010000D    129
     126       0               8       0                               0D    130
     126     185                                                00010000D    131
     126       0               2       0                               0D    132
     126     187                                                00010000D    133
     126       0               8       0                               0D    134
     126     195                                                00010000D    135
     126       0               2       0                               0D    136
     126     197                                                00010000D    137
     126       0               2       0                               0D    138
     126     199                                                00010000D    139
     126       0               2       0                               0D    140
     126     201                                                00010000D    141
     126       0               2       0                               0D    142
     126     203                                                00010000D    143
     126       0               2       0                               0D    144
     126     205                                                00010000D    145
     126       0               2       0                               0D    146
     126     207                                                00010000D    147
     126       0               2       0                               0D    148
     126     209                                                00010000D    149
     126       0               2       0                               0D    150
     126     211                                                00010000D    151
     126       0               2       0                               0D    152
     126     213                                                00010000D    153
     126       0               2       0                               0D    154
     126     215                                                00010000D    155
     126       0               2       0                               0D    156
     126     217                                                00010000D    157
     126       0               2       0                               0D    158
     128     219                                                00010000D    159
     128       0    -197       5       0                               0D    160
     128     224                                                00010000D    161
     128       0    -197       5       0                               0D    162
     128     229                                                00010000D    163
     128       0    -197      19       0                               0D    164
     128     248                                                00010000D    165
     128       0    -197      19       0                               0D    166
     128     267                                                00010000D    167
     128       0    -197       7       0                               0D    168
     128     274                                                00010000D    169
     128       0    -197      18       0                               0D    170
     128     292                                                00010000D    171
     128       0    -197      13       0                               0D    172
     128     305                                                00010000D    173
     128       0    -197       3       0                               0D    174
     128     308                                                00010000D    175
     128       0    -197      13       0                               0D    176
     128     321                                                00010000D    177
     128       0    -197      12       0                               0D    178
     128     333                                                00010000D    179
     128       0    -197       3       0                               0D    180
     128     336                                                00010000D    181
     128       0    -197       2       0                               0D    182
     128     338                                                00010000D    183
     128       0    -197       2       0                               0D    184
     128     340                                                00010000D    185
     128       0    -197       3       0                               0D    186
     128     343                                                00010000D    187
     128       0    -197       3       0                               0D    188
     128     346                                                00010000D    189
     128       0    -197       3       0                               0D    190
     502     349                                                00010000D    191
     502                       9       1                               0D    192
     504     358                                                00010001D    193
     504                      11       1                               0D    194
     406     369                                                00000000D    195
     406                       1      15                               0D    196
     314     370                                                00000200D    197
     314                       1       0                               0D    198
186,3,1,0,0,1,195;                                                     1P      1
514,16,5,1,7,1,9,1,11,1,13,1,15,1,17,1,19,1,21,1,23,1,25,1,27,1,       3P      2
29,1,31,1,33,1,35,1;                                                   3P      3
510,159,1,1,37;                                                        5P      4
510,161,1,1,39;                                                        7P      5
510,163,1,1,41;                                                        9P      6
510,165,1,1,43;                                                       11P      7
510,167,1,1,45;                                                       13P      8
510,169,1,1,47;                                                       15P      9
510,171,1,1,49;                                                       17P     10
510,173,2,1,51,53;                                                    19P     11
510,175,1,1,55;                                                       21P     12
510,177,1,1,57;                                                       23P     13
510,179,1,1,59;                                                       25P     14
510,181,1,1,61;                                                       27P     15
510,183,1,1,63;                                                       29P     16
510,185,1,1,65;                                                       31P     17
510,187,4,1,67,69,71,73;                                              33P     18
510,189,4,1,75,77,79,81;                                              35P     19
508,4,0,193,1,0,0,0,193,2,1,0,0,193,3,0,0,0,193,4,0,0;                37P     20
508,4,0,193,5,0,0,0,193,6,0,0,0,193,7,0,0,0,193,8,1,0;                39P     21
508,5,0,193,5,1,0,0,193,9,1,0,0,193,10,1,0,0,193,1,1,0,0,193,11,      41P     22
0,0;                                                                  41P     23
508,4,0,193,7,1,0,0,193,12,0,0,0,193,3,1,0,0,193,13,0,0;              43P     24
508,4,0,193,6,1,0,0,193,11,1,0,0,193,4,1,0,0,193,12,1,0;              45P     25
508,7,0,193,14,0,0,0,193,15,0,0,0,193,16,1,0,0,193,9,0,0,0,193,       47P     26
17,0,0,0,193,10,0,0,0,193,16,0,0;                                     47P     27
508,4,0,193,18,0,0,0,193,19,1,0,0,193,20,0,0,0,193,19,0,0;            49P     28
508,1,0,193,18,1,0;                                                   51P     29
508,4,0,193,13,1,0,0,193,2,0,0,0,193,17,1,0,0,193,8,0,0;              53P     30
508,4,0,193,21,0,0,0,193,22,1,0,0,193,23,0,0,0,193,22,0,0;            55P     31
508,4,0,193,24,0,0,0,193,25,1,0,0,193,26,0,0,0,193,25,0,0;            57P     32
508,4,0,193,27,0,0,0,193,28,1,0,0,193,29,0,0,0,193,30,0,0;            59P     33
508,4,0,193,31,0,0,0,193,30,1,0,0,193,32,0,0,0,193,33,0,0;            61P     34
508,4,0,193,34,0,0,0,193,33,1,0,0,193,35,0,0,0,193,36,0,0;            63P     35
508,4,0,193,37,0,0,0,193,36,1,0,0,193,38,0,0,0,193,28,0,0;            65P     36
508,4,0,193,37,1,0,0,193,27,1,0,0,193,31,1,0,0,193,34,1,0;            67P     37
508,2,0,193,14,1,0,0,193,15,1,0;                                      69P     38
508,1,0,193,23,1,0;                                                   71P     39
508,1,0,193,26,1,0;                                                   73P     40
508,4,0,193,38,1,0,0,193,35,1,0,0,193,32,1,0,0,193,29,1,0;            75P     41
508,1,0,193,20,1,0;                                                   77P     42
508,1,0,193,21,1,0;                                                   79P     43
508,1,0,193,24,1,0;                                                   81P     44
126,1,1,0,0,1,0,0.,0.,0.3,0.3,1.,1.,-10.5,14.6087376914899,31.,       83P     45
-10.5,14.6087376914899,34.,0.,0.3,0.,0.,0.;                           83P     46
126,1,1,0,0,1,0,0.10617376914899,0.10617376914899,                    85P     47
0.280842198490352,0.280842198490352,1.,1.,-10.5,                      85P     48
14.6087376914899,31.,-10.5,16.3554219849035,31.,                      85P     49
0.10617376914899,0.280842198490352,0.,0.,0.;                          85P     50
126,1,1,0,0,1,0,-0.3,-0.3,0.,0.,1.,1.,-10.5,16.3554219849035,         87P     51
34.,-10.5,16.3554219849035,31.,-0.3,0.,0.,0.,0.;                      87P     52
126,1,1,0,0,1,0,0.25617376914899,0.25617376914899,                    89P     53
0.430842198490352,0.430842198490352,1.,1.,-10.5,                      89P     54
14.6087376914899,34.,-10.5,16.3554219849035,34.,                      89P     55
0.25617376914899,0.430842198490352,0.,0.,0.;                          89P     56
126,1,1,0,0,1,0,-0.3,-0.3,0.,0.,1.,1.,-6.5,14.6087376914899,34.,      91P     57
-6.5,14.6087376914899,31.,-0.3,0.,0.,0.,0.;                           91P     58
126,1,1,0,0,1,0,-0.130842198490352,-0.130842198490352,                93P     59
0.04382623085101,0.04382623085101,1.,1.,-6.5,16.3554219849035,        93P     60
34.,-6.5,14.6087376914899,34.,-0.130842198490352,                     93P     61
0.04382623085101,0.,0.,0.;                                            93P     62
126,1,1,0,0,1,0,0.,0.,0.3,0.3,1.,1.,-6.5,16.3554219849035,31.,        95P     63
-6.5,16.3554219849035,34.,0.,0.3,0.,0.,0.;                            95P     64
126,1,1,0,0,1,0,0.0191578015096479,0.0191578015096479,                97P     65
0.19382623085101,0.19382623085101,1.,1.,-6.5,16.3554219849035,        97P     66
31.,-6.5,14.6087376914899,31.,0.0191578015096479,                     97P     67
0.19382623085101,0.,0.,0.;                                            97P     68
126,6,2,0,0,0,0,-7.19110781032435,-7.19110781032435,                  99P     69
-7.19110781032435,-5.84126942474616,-5.84126942474616,                99P     70
-4.49143103916798,-4.49143103916798,-3.14159265358979,                99P     71
-3.14159265358979,-3.14159265358979,1.,0.780757444792728,1.,          99P     72
0.78075744479273,1.,0.780757444792728,1.,-6.5,14.6087376914899,       99P     73
31.,-4.44986086483966,13.0081529462438,31.,-5.56221465181508,         99P     74
10.6570657396877,31.,-6.67456843879051,8.30597853313152,31.,          99P     75
-9.21228421939526,8.8760141610533,31.,-11.75,9.44604978897509,        99P     76
31.,-11.75,12.047,31.,-7.19110781032435,-3.14159265358979,0.,0.,      99P     77
0.;                                                                   99P     78
126,2,2,0,0,0,0,-3.14159265358979,-3.14159265358979,                 101P     79
-3.14159265358979,-2.23367015044503,-2.23367015044503,               101P     80
-2.23367015044503,1.,0.898717034272905,1.,-11.75,12.047,31.,         101P     81
-11.75,13.6328376185414,31.,-10.5,14.6087376914899,31.,              101P     82
-3.14159265358979,-2.23367015044503,0.,0.,0.;                        101P     83
126,8,2,0,0,0,0,-4.04951515673455,-4.04951515673455,                 103P     84
-4.04951515673455,-2.81015574176473,-2.81015574176473,               103P     85
-1.5707963267949,-1.5707963267949,-0.331436911825068,                103P     86
-0.331436911825068,0.907922503144761,0.907922503144761,              103P     87
0.907922503144761,1.,0.81406451612548,1.,0.814064516125482,1.,       103P     88
0.814064516125478,1.,0.814064516125478,1.,-6.5,14.6087376914899,     103P     89
34.,-4.67239079539053,13.1818865266101,34.,-5.4268788262304,         103P     90
10.989443263305,34.,-6.18136685707027,8.797,34.,-8.5,8.797,34.,      103P     91
-10.8186331429297,8.797,34.,-11.5731211737696,10.989443263305,       103P     92
34.,-12.3276092046095,13.1818865266101,34.,-10.5,                    103P     93
14.6087376914899,34.,-4.04951515673455,0.907922503144761,0.,0.,      103P     94
0.;                                                                  103P     95
126,8,2,0,0,0,0,-7.41937610836712,-7.41937610836712,                 105P     96
-7.41937610836712,-6.0658825443759,-6.0658825443759,                 105P     97
-4.71238898038469,-4.71238898038469,-3.35889541639348,               105P     98
-3.35889541639348,-2.00540185240226,-2.00540185240226,               105P     99
-2.00540185240226,1.,0.779614201240886,1.,0.779614201240885,1.,      105P    100
0.779614201240886,1.,0.779614201240886,1.,-10.5,                     105P    101
16.3554219849035,34.,-13.9609332732195,14.7488322472472,34.,         105P    102
-13.1382919500767,11.0229161236236,34.,-12.3156506269338,7.297,      105P    103
34.,-8.5,7.297,34.,-4.68434937306619,7.297,34.,                      105P    104
-3.86170804992335,11.0229161236236,34.,-3.03906672678052,            105P    105
14.7488322472472,34.,-6.5,16.3554219849035,34.,                      105P    106
-7.41937610836712,-2.00540185240226,0.,0.,0.;                        105P    107
126,8,2,0,0,0,0,-4.27778345477732,-4.27778345477732,                 107P    108
-4.27778345477732,-2.92428989078611,-2.92428989078611,               107P    109
-1.5707963267949,-1.5707963267949,-0.217302762803684,                107P    110
-0.217302762803684,1.13619080118753,1.13619080118753,                107P    111
1.13619080118753,1.,0.779614201240887,1.,0.779614201240885,1.,       107P    112
0.779614201240886,1.,0.779614201240887,1.,-6.5,16.3554219849035,     107P    113
31.,-3.03906672678052,14.7488322472472,31.,-3.86170804992335,        107P    114
11.0229161236236,31.,-4.68434937306619,7.297,31.,-8.5,7.297,31.,     107P    115
-12.3156506269338,7.297,31.,-13.1382919500767,11.0229161236236,      107P    116
31.,-13.9609332732195,14.7488322472472,31.,-10.5,                    107P    117
16.3554219849035,31.,-4.27778345477732,1.13619080118753,0.,0.,       107P    118
0.;                                                                  107P    119
126,4,2,0,0,0,0,0.,0.,0.,1.5707963267949,1.5707963267949,            109P    120
3.14159265358979,3.14159265358979,3.14159265358979,1.,               109P    121
0.707106781186547,1.,0.707106781186547,1.,-3.5,12.047,0.,-3.5,       109P    122
17.047,0.,-8.5,17.047,0.,-13.5,17.047,0.,-13.5,12.047,0.,0.,         109P    123
3.14159265358979,0.,0.,0.;                                           109P    124
126,4,2,0,0,0,0,3.14159265358979,3.14159265358979,                   111P    125
3.14159265358979,4.71238898038469,4.71238898038469,                  111P    126
6.28318530717959,6.28318530717959,6.28318530717959,1.,               111P    127
0.707106781186547,1.,0.707106781186547,1.,-13.5,12.047,0.,-13.5,     111P    128
7.047,0.,-8.5,7.047,0.,-3.50000000000001,7.047,0.,-3.5,12.047,       111P    129
0.,3.14159265358979,6.28318530717959,0.,0.,0.;                       111P    130
126,1,1,0,0,1,0,-3.14532508661988D-17,-3.14532508661988D-17,         113P    131
6.20987117418711,6.20987117418711,1.,1.,-13.5,12.047,                113P    132
-1.57016264830936D-16,-11.75,12.047,31.,-3.14532508661988D-17,       113P    133
6.20987117418711,0.,0.,0.;                                           113P    134
126,2,2,0,0,0,0,-2.23367015044503,-2.23367015044503,                 115P    135
-2.23367015044503,-0.907922503144761,-0.907922503144761,             115P    136
-0.907922503144761,1.,0.788226981996892,1.,-10.5,                    115P    137
14.6087376914899,31.,-8.5,16.1701778082076,31.,-6.5,                 115P    138
14.6087376914899,31.,-2.23367015044503,-0.907922503144761,0.,0.,     115P    139
0.;                                                                  115P    140
126,8,2,0,1,0,0,-3.14159265358979,-3.14159265358979,                 117P    141
-3.14159265358979,-1.5707963267949,-1.5707963267949,0.,0.,           117P    142
1.5707963267949,1.5707963267949,3.14159265358979,                    117P    143
3.14159265358979,3.14159265358979,1.,0.707106781186547,1.,           117P    144
0.707106781186546,1.,0.707106781186547,1.,0.707106781186547,1.,      117P    145
-2.,12.047,31.,-2.,18.547,31.,-8.5,18.547,31.,-15.,18.547,31.,       117P    146
-15.,12.047,31.,-15.,5.547,31.,-8.5,5.547,31.,-2.,5.547,31.,-2.,     117P    147
12.047,31.,-3.14159265358979,3.14159265358979,0.,0.,0.;              117P    148
126,1,1,0,0,1,0,-4.61538461538462,-4.61538461538462,0.,0.,1.,1.,     119P    149
-2.,12.047,31.,-2.,12.047,1.,-4.61538461538462,0.,0.,0.,0.;          119P    150
126,8,2,0,1,0,0,-3.14159265358979,-3.14159265358979,                 121P    151
-3.14159265358979,-1.5707963267949,-1.5707963267949,0.,0.,           121P    152
1.5707963267949,1.5707963267949,3.14159265358979,                    121P    153
3.14159265358979,3.14159265358979,1.,0.707106781186547,1.,           121P    154
0.707106781186547,1.,0.707106781186546,1.,0.707106781186547,1.,      121P    155
-2.,12.047,1.,-2.,5.547,1.,-8.5,5.547,1.,-15.,5.547,1.,-15.,         121P    156
12.047,1.,-15.,18.547,1.,-8.5,18.547,1.,-2.,18.547,1.,-2.,           121P    157
12.047,1.,-3.14159265358979,3.14159265358979,0.,0.,0.;               121P    158
126,8,2,0,1,0,0,-3.14159265358979,-3.14159265358979,                 123P    159
-3.14159265358979,-1.5707963267949,-1.5707963267949,0.,0.,           123P    160
1.5707963267949,1.5707963267949,3.14159265358979,                    123P    161
3.14159265358979,3.14159265358979,1.,0.707106781186554,1.,           123P    162
0.707106781186554,1.,0.707106781186554,1.,0.707106781186554,1.,      123P    163
-11.15,26.,1.,-11.15,24.65,1.,-12.5,24.65,1.,-13.85,24.65,1.,        123P    164
-13.85,26.,1.,-13.85,27.35,1.,-12.5,27.35,1.,-11.15,27.35,1.,        123P    165
-11.15,26.,1.,-3.14159265358979,3.14159265358979,0.,0.,0.;           123P    166
126,1,1,0,0,1,0,0.,0.,0.740740740740741,0.740740740740741,1.,1.,     125P    167
-11.15,26.,1.,-11.15,26.,0.,0.,0.740740740740741,0.,0.,0.;           125P    168
126,8,2,0,1,0,0,-3.14159265358979,-3.14159265358979,                 127P    169
-3.14159265358979,-1.5707963267949,-1.5707963267949,0.,0.,           127P    170
1.5707963267949,1.5707963267949,3.14159265358979,                    127P    171
3.14159265358979,3.14159265358979,1.,0.707106781186554,1.,           127P    172
0.707106781186554,1.,0.707106781186554,1.,0.707106781186554,1.,      127P    173
-11.15,26.,0.,-11.15,27.35,0.,-12.5,27.35,0.,-13.85,27.35,0.,        127P    174
-13.85,26.,0.,-13.85,24.65,0.,-12.5,24.65,0.,-11.15,24.65,0.,        127P    175
-11.15,26.,0.,-3.14159265358979,3.14159265358979,0.,0.,0.;           127P    176
126,8,2,0,1,0,0,-3.14159265358979,-3.14159265358979,                 129P    177
-3.14159265358979,-1.5707963267949,-1.5707963267949,0.,0.,           129P    178
1.5707963267949,1.5707963267949,3.14159265358979,                    129P    179
3.14159265358979,3.14159265358979,1.,0.707106781186547,1.,           129P    180
0.707106781186546,1.,0.707106781186546,1.,0.707106781186546,1.,      129P    181
-3.15,5.,1.,-3.15,3.65,1.,-4.5,3.65,1.,-5.85,3.65,1.,-5.85,5.,       129P    182
1.,-5.85,6.35,1.,-4.5,6.35,1.,-3.15,6.35,1.,-3.15,5.,1.,             129P    183
-3.14159265358979,3.14159265358979,0.,0.,0.;                         129P    184
126,1,1,0,0,1,0,0.,0.,0.740740740740741,0.740740740740741,1.,1.,     131P    185
-3.15,5.,1.,-3.15,5.,0.,0.,0.740740740740741,0.,0.,0.;               131P    186
126,8,2,0,1,0,0,-3.14159265358979,-3.14159265358979,                 133P    187
-3.14159265358979,-1.5707963267949,-1.5707963267949,0.,0.,           133P    188
1.5707963267949,1.5707963267949,3.14159265358979,                    133P    189
3.14159265358979,3.14159265358979,1.,0.707106781186546,1.,           133P    190
0.707106781186546,1.,0.707106781186546,1.,0.707106781186547,1.,      133P    191
-3.15,5.,0.,-3.15,6.35,0.,-4.5,6.35,0.,-5.85,6.35,0.,-5.85,5.,       133P    192
0.,-5.85,3.65,0.,-4.5,3.65,0.,-3.15,3.65,0.,-3.15,5.,0.,             133P    193
-3.14159265358979,3.14159265358979,0.,0.,0.;                         133P    194
126,1,1,0,0,1,0,0.,0.,2.8,2.8,1.,1.,-2.22044604925031D-15,28.,       135P    195
0.,0.,0.,0.,0.,2.8,0.,0.,0.;                                         135P    196
126,1,1,0,0,1,0,0.,0.,0.1,0.1,1.,1.,-2.22044604925031D-15,28.,       137P    197
0.,-2.22044604925031D-15,28.,1.,0.,0.1,0.,0.,0.;                     137P    198
126,1,1,0,0,1,0,-2.8,-2.8,0.,0.,1.,1.,0.,0.,1.,                      139P    199
-2.22044604925031D-15,28.,1.,-2.8,0.,0.,0.,0.;                       139P    200
126,1,1,0,0,1,0,0.,0.,0.1,0.1,1.,1.,0.,0.,0.,0.,0.,1.,0.,0.1,0.,     141P    201
0.,0.;                                                               141P    202
126,1,1,0,0,1,0,0.,0.,1.7,1.7,1.,1.,0.,0.,0.,-17.,0.,0.,0.,1.7,      143P    203
0.,0.,0.;                                                            143P    204
126,1,1,0,0,1,0,-1.7,-1.7,0.,0.,1.,1.,-17.,0.,1.,0.,0.,1.,-1.7,      145P    205
0.,0.,0.,0.;                                                         145P    206
126,1,1,0,0,1,0,0.,0.,0.1,0.1,1.,1.,-17.,0.,0.,-17.,0.,1.,0.,        147P    207
0.1,0.,0.,0.;                                                        147P    208
126,1,1,0,0,1,0,0.,0.,2.8,2.8,1.,1.,-17.,0.,0.,-17.,28.,0.,0.,       149P    209
2.8,0.,0.,0.;                                                        149P    210
126,1,1,0,0,1,0,-2.8,-2.8,0.,0.,1.,1.,-17.,28.,1.,-17.,0.,1.,        151P    211
-2.8,0.,0.,0.,0.;                                                    151P    212
126,1,1,0,0,1,0,0.,0.,0.1,0.1,1.,1.,-17.,28.,0.,-17.,28.,1.,0.,      153P    213
0.1,0.,0.,0.;                                                        153P    214
126,1,1,0,0,1,0,0.,0.,1.7,1.7,1.,1.,-17.,28.,0.,                     155P    215
-2.22044604925031D-15,28.,0.,0.,1.7,0.,0.,0.;                        155P    216
126,1,1,0,0,1,0,-1.7,-1.7,0.,0.,1.,1.,-2.22044604925031D-15,28.,     157P    217
1.,-17.,28.,1.,-1.7,0.,0.,0.,0.;                                     157P    218
128,1,1,1,1,0,0,1,0,0,0.25617376914899,0.25617376914899,             159P    219
0.430842198490352,0.430842198490352,0.,0.,0.3,0.3,1.,1.,1.,1.,       159P    220
-10.5,16.3554219849035,34.,-10.5,14.6087376914899,34.,-10.5,         159P    221
16.3554219849035,31.,-10.5,14.6087376914899,31.,                     159P    222
0.25617376914899,0.430842198490352,0.,0.3;                           159P    223
128,1,1,1,1,0,0,1,0,0,0.169157801509648,0.169157801509648,           161P    224
0.34382623085101,0.34382623085101,0.,0.,0.3,0.3,1.,1.,1.,1.,         161P    225
-6.5,14.6087376914899,34.,-6.5,16.3554219849035,34.,-6.5,            161P    226
14.6087376914899,31.,-6.5,16.3554219849035,31.,                      161P    227
0.169157801509648,0.34382623085101,0.,0.3;                           161P    228
128,1,8,1,2,0,0,0,0,0,0.,0.,0.923076923076923,0.923076923076923,     163P    229
-7.19110781032435,-7.19110781032435,-7.19110781032435,               163P    230
-5.95174839535452,-5.95174839535452,-4.71238898038469,               163P    231
-4.71238898038469,-3.47302956541486,-3.47302956541486,               163P    232
-2.23367015044503,-2.23367015044503,-2.23367015044503,1.,1.,         163P    233
0.814064516125479,0.814064516125479,1.,1.,0.814064516125479,         163P    234
0.814064516125479,1.,1.,0.814064516125479,0.814064516125479,1.,      163P    235
1.,0.814064516125479,0.814064516125479,1.,1.,-10.5,                  163P    236
14.6087376914899,31.,-10.5,14.6087376914899,34.,                     163P    237
-12.3276092046095,13.1818865266101,31.,-12.3276092046095,            163P    238
13.1818865266101,34.,-11.5731211737696,10.989443263305,31.,          163P    239
-11.5731211737696,10.989443263305,34.,-10.8186331429297,8.797,       163P    240
31.,-10.8186331429297,8.797,34.,-8.5,8.797,31.,-8.5,8.797,34.,       163P    241
-6.18136685707027,8.797,31.,-6.18136685707027,8.797,34.,             163P    242
-5.4268788262304,10.989443263305,31.,-5.4268788262304,               163P    243
10.989443263305,34.,-4.67239079539053,13.1818865266101,31.,          163P    244
-4.67239079539053,13.1818865266101,34.,-6.5,14.6087376914899,        163P    245
31.,-6.5,14.6087376914899,34.,0.,0.923076923076923,                  163P    246
-7.19110781032435,-2.23367015044503;                                 163P    247
128,1,8,1,2,0,0,0,0,0,0.,0.,0.631578947368422,0.631578947368422,     165P    248
-7.41937610836712,-7.41937610836712,-7.41937610836712,               165P    249
-6.0658825443759,-6.0658825443759,-4.71238898038469,                 165P    250
-4.71238898038469,-3.35889541639348,-3.35889541639348,               165P    251
-2.00540185240226,-2.00540185240226,-2.00540185240226,1.,1.,         165P    252
0.779614201240886,0.779614201240886,1.,1.,0.779614201240886,         165P    253
0.779614201240886,1.,1.,0.779614201240886,0.779614201240886,1.,      165P    254
1.,0.779614201240886,0.779614201240886,1.,1.,-10.5,                  165P    255
16.3554219849035,34.,-10.5,16.3554219849035,31.,                     165P    256
-13.9609332732195,14.7488322472472,34.,-13.9609332732195,            165P    257
14.7488322472472,31.,-13.1382919500767,11.0229161236236,34.,         165P    258
-13.1382919500767,11.0229161236236,31.,-12.3156506269338,7.297,      165P    259
34.,-12.3156506269338,7.297,31.,-8.5,7.297,34.,-8.5,7.297,31.,       165P    260
-4.68434937306619,7.297,34.,-4.68434937306619,7.297,31.,             165P    261
-3.86170804992335,11.0229161236236,34.,-3.86170804992335,            165P    262
11.0229161236236,31.,-3.03906672678052,14.7488322472472,34.,         165P    263
-3.03906672678052,14.7488322472472,31.,-6.5,16.3554219849035,        165P    264
34.,-6.5,16.3554219849035,31.,0.,0.631578947368422,                  165P    265
-7.41937610836712,-2.00540185240226;                                 165P    266
128,1,1,1,1,0,0,1,0,0,-0.546093327321949,-0.546093327321949,         167P    267
0.546093327321949,0.546093327321949,-0.475,-0.475,                   167P    268
0.430842198490352,0.430842198490352,1.,1.,1.,1.,                     167P    269
-13.9609332732195,7.297,34.,-3.03906672678052,7.297,34.,             167P    270
-13.9609332732195,16.3554219849035,34.,-3.03906672678052,            167P    271
16.3554219849035,34.,-0.546093327321949,0.546093327321949,           167P    272
-0.475,0.430842198490352;                                            167P    273
128,1,8,1,2,0,1,0,0,1,-3.14532508661988D-17,                         169P    274
-3.14532508661988D-17,6.20987117418711,6.20987117418711,             169P    275
-3.14159265358979,-3.14159265358979,-3.14159265358979,               169P    276
-1.5707963267949,-1.5707963267949,0.,0.,1.5707963267949,             169P    277
1.5707963267949,3.14159265358979,3.14159265358979,                   169P    278
3.14159265358979,1.,1.,0.707106781186548,0.707106781186548,1.,       169P    279
1.,0.707106781186548,0.707106781186548,1.,1.,0.707106781186548,      169P    280
0.707106781186548,1.,1.,0.707106781186548,0.707106781186548,1.,      169P    281
1.,-13.5,12.047,-1.57016264830936D-16,-11.75,12.047,31.,-13.5,       169P    282
7.047,-1.57016264830936D-16,-11.75,8.797,31.,-8.5,7.047,             169P    283
-1.57016264830936D-16,-8.5,8.797,31.,-3.5,7.047,                     169P    284
-1.57016264830936D-16,-5.25,8.797,31.,-3.5,12.047,                   169P    285
-1.57016264830936D-16,-5.25,12.047,31.,-3.5,17.047,                  169P    286
-1.57016264830936D-16,-5.25,15.297,31.,-8.5,17.047,                  169P    287
-1.57016264830936D-16,-8.5,15.297,31.,-13.5,17.047,                  169P    288
-1.57016264830936D-16,-11.75,15.297,31.,-13.5,12.047,                169P    289
-1.57016264830936D-16,-11.75,12.047,31.,-3.14532508661988D-17,       169P    290
6.20987117418711,-3.14159265358979,3.14159265358979;                 169P    291
128,1,8,1,2,0,1,0,0,1,0.,0.,4.61538461538462,4.61538461538462,       171P    292
-3.14159265358979,-3.14159265358979,-3.14159265358979,               171P    293
-1.5707963267949,-1.5707963267949,0.,0.,1.5707963267949,             171P    294
1.5707963267949,3.14159265358979,3.14159265358979,                   171P    295
3.14159265358979,1.,1.,0.707106781186548,0.707106781186548,1.,       171P    296
1.,0.707106781186548,0.707106781186548,1.,1.,0.707106781186548,      171P    297
0.707106781186548,1.,1.,0.707106781186548,0.707106781186548,1.,      171P    298
1.,-2.,12.047,31.,-2.,12.047,1.,-2.,18.547,31.,-2.,18.547,1.,        171P    299
-8.5,18.547,31.,-8.5,18.547,1.,-15.,18.547,31.,-15.,18.547,1.,       171P    300
-15.,12.047,31.,-15.,12.047,1.,-15.,5.547,31.,-15.,5.547,1.,         171P    301
-8.5,5.547,31.,-8.5,5.547,1.,-2.,5.547,31.,-2.,5.547,1.,-2.,         171P    302
12.047,31.,-2.,12.047,1.,0.,4.61538461538462,-3.14159265358979,      171P    303
3.14159265358979;                                                    171P    304
128,1,1,1,1,0,0,1,0,0,-0.65,-0.65,0.65,0.65,-0.65,-0.65,0.65,        173P    305
0.65,1.,1.,1.,1.,-15.,5.547,31.,-2.,5.547,31.,-15.,18.547,31.,       173P    306
-2.,18.547,31.,-0.65,0.65,-0.65,0.65;                                173P    307
128,1,8,1,2,0,1,0,0,1,0.,0.,0.740740740740741,0.740740740740741,     175P    308
-3.14159265358979,-3.14159265358979,-3.14159265358979,               175P    309
-1.5707963267949,-1.5707963267949,0.,0.,1.5707963267949,             175P    310
1.5707963267949,3.14159265358979,3.14159265358979,                   175P    311
3.14159265358979,1.,1.,0.707106781186548,0.707106781186548,1.,       175P    312
1.,0.707106781186548,0.707106781186548,1.,1.,0.707106781186548,      175P    313
0.707106781186548,1.,1.,0.707106781186548,0.707106781186548,1.,      175P    314
1.,-11.15,26.,1.,-11.15,26.,0.,-11.15,24.65,1.,-11.15,24.65,0.,      175P    315
-12.5,24.65,1.,-12.5,24.65,0.,-13.85,24.65,1.,-13.85,24.65,0.,       175P    316
-13.85,26.,1.,-13.85,26.,0.,-13.85,27.35,1.,-13.85,27.35,0.,         175P    317
-12.5,27.35,1.,-12.5,27.35,0.,-11.15,27.35,1.,-11.15,27.35,0.,       175P    318
-11.15,26.,1.,-11.15,26.,0.,0.,0.740740740740741,                    175P    319
-3.14159265358979,3.14159265358979;                                  175P    320
128,1,8,1,2,0,1,0,0,1,0.,0.,0.740740740740741,0.740740740740741,     177P    321
-3.14159265358979,-3.14159265358979,-3.14159265358979,               177P    322
-1.5707963267949,-1.5707963267949,0.,0.,1.5707963267949,             177P    323
1.5707963267949,3.14159265358979,3.14159265358979,                   177P    324
3.14159265358979,1.,1.,0.707106781186548,0.707106781186548,1.,       177P    325
1.,0.707106781186548,0.707106781186548,1.,1.,0.707106781186548,      177P    326
0.707106781186548,1.,1.,0.707106781186548,0.707106781186548,1.,      177P    327
1.,-3.15,5.,1.,-3.15,5.,0.,-3.15,3.65,1.,-3.15,3.65,0.,-4.5,         177P    328
3.65,1.,-4.5,3.65,0.,-5.85,3.65,1.,-5.85,3.65,0.,-5.85,5.,1.,        177P    329
-5.85,5.,0.,-5.85,6.35,1.,-5.85,6.35,0.,-4.5,6.35,1.,-4.5,6.35,      177P    330
0.,-3.15,6.35,1.,-3.15,6.35,0.,-3.15,5.,1.,-3.15,5.,0.,0.,           177P    331
0.740740740740741,-3.14159265358979,3.14159265358979;                177P    332
128,1,1,1,1,0,0,1,0,0,0.,0.,2.8,2.8,0.,0.,0.1,0.1,1.,1.,1.,1.,       179P    333
0.,0.,0.,-2.22044604925031D-15,28.,0.,0.,0.,1.,                      179P    334
-2.22044604925031D-15,28.,1.,0.,2.8,0.,0.1;                          179P    335
128,1,1,1,1,0,0,1,0,0,0.,0.,1.7,1.7,0.,0.,0.1,0.1,1.,1.,1.,1.,       181P    336
-17.,0.,0.,0.,0.,0.,-17.,0.,1.,0.,0.,1.,0.,1.7,0.,0.1;               181P    337
128,1,1,1,1,0,0,1,0,0,0.,0.,2.8,2.8,0.,0.,0.1,0.1,1.,1.,1.,1.,       183P    338
-17.,28.,0.,-17.,0.,0.,-17.,28.,1.,-17.,0.,1.,0.,2.8,0.,0.1;         183P    339
128,1,1,1,1,0,0,1,0,0,0.,0.,1.7,1.7,0.,0.,0.1,0.1,1.,1.,1.,1.,       185P    340
-2.22044604925031D-15,28.,0.,-17.,28.,0.,-2.22044604925031D-15,      185P    341
28.,1.,-17.,28.,1.,0.,1.7,0.,0.1;                                    185P    342
128,1,1,1,1,0,0,1,0,0,-0.85,-0.85,0.85,0.85,-1.4,-1.4,1.4,1.4,       187P    343
1.,1.,1.,1.,0.,0.,0.,-17.,0.,0.,0.,28.,0.,-17.,28.,0.,-0.85,         187P    344
0.85,-1.4,1.4;                                                       187P    345
128,1,1,1,1,0,0,1,0,0,-0.85,-0.85,0.85,0.85,-1.4,-1.4,1.4,1.4,       189P    346
1.,1.,1.,1.,-17.,0.,1.,0.,0.,1.,-17.,28.,1.,0.,28.,1.,-0.85,         189P    347
0.85,-1.4,1.4;                                                       189P    348
502,25,-10.5,14.6087376914899,31.,-10.5,14.6087376914899,34.,        191P    349
-10.5,16.3554219849035,31.,-10.5,16.3554219849035,34.,-6.5,          191P    350
14.6087376914899,34.,-6.5,14.6087376914899,31.,-6.5,                 191P    351
16.3554219849035,34.,-6.5,16.3554219849035,31.,-11.75,12.047,        191P    352
31.,-3.5,12.047,0.,-13.5,12.047,-1.57016264830936D-16,-2.,           191P    353
12.047,31.,-2.,12.047,1.,-11.15,26.,1.,-11.15,26.,0.,-3.15,5.,       191P    354
1.,-3.15,5.,0.,-2.22044604925031D-15,28.,0.,0.,0.,0.,                191P    355
-2.22044604925031D-15,28.,1.,0.,0.,1.,-17.,0.,0.,-17.,0.,1.,         191P    356
-17.,28.,0.,-17.,28.,1.;                                             191P    357
504,38,83,191,1,191,2,85,191,1,191,3,87,191,4,191,3,89,191,2,        193P    358
191,4,91,191,5,191,6,93,191,7,191,5,95,191,8,191,7,97,191,8,191,     193P    359
6,99,191,6,191,9,101,191,9,191,1,103,191,5,191,2,105,191,4,191,      193P    360
7,107,191,8,191,3,109,191,10,191,11,111,191,11,191,10,113,191,       193P    361
11,191,9,115,191,1,191,6,117,191,12,191,12,119,191,12,191,13,        193P    362
121,191,13,191,13,123,191,14,191,14,125,191,14,191,15,127,191,       193P    363
15,191,15,129,191,16,191,16,131,191,16,191,17,133,191,17,191,17,     193P    364
135,191,18,191,19,137,191,18,191,20,139,191,21,191,20,141,191,       193P    365
19,191,21,143,191,19,191,22,145,191,23,191,21,147,191,22,191,23,     193P    366
149,191,22,191,24,151,191,25,191,23,153,191,24,191,25,155,191,       193P    367
24,191,18,157,191,20,191,25;                                         193P    368
406,1,6HSolid1;                                                      195P    369
314,74.9019607843137,74.9019607843137,74.9019607843137,;             197P    370
S      1G      2D    198P    370                                        T      1
