                                                                        S      1
,,,20Hfijador.rodamiento02,21HAutodesk Inventor LT ,7Hunknown,32,38,7,  G      1
99,15,,1.,2,2HMM,1,0.08,15H20150921.104454,0.01,10000.,2Hpc,,11,0,15H201G      2
50617.113613;                                                           G      3
     186       1                                                00000000D      1
     186             -71       1       0                               0D      2
     514       2                                                00010000D      3
     514                       1       1                               0D      4
     510       3                                                00010000D      5
     510             -71       1       1                               0D      6
     510       4                                                00010000D      7
     510             -71       1       1                               0D      8
     510       5                                                00010000D      9
     510             -71       1       1                               0D     10
     510       6                                                00010000D     11
     510             -71       1       1                               0D     12
     510       7                                                00010000D     13
     510             -71       1       1                               0D     14
     510       8                                                00010000D     15
     510             -71       1       1                               0D     16
     508       9                                                00010000D     17
     508                       1       1                               0D     18
     508      10                                                00010000D     19
     508                       1       1                               0D     20
     508      11                                                00010000D     21
     508                       1       1                               0D     22
     508      12                                                00010000D     23
     508                       1       1                               0D     24
     508      13                                                00010000D     25
     508                       1       1                               0D     26
     508      14                                                00010000D     27
     508                       1       1                               0D     28
     508      15                                                00010000D     29
     508                       1       1                               0D     30
     508      16                                                00010000D     31
     508                       1       1                               0D     32
     508      17                                                00010000D     33
     508                       1       1                               0D     34
     126      18                                                00010000D     35
     126       0              10       0                               0D     36
     126      28                                                00010000D     37
     126       0               2       0                               0D     38
     126      30                                                00010000D     39
     126       0              10       0                               0D     40
     126      40                                                00010000D     41
     126       0              10       0                               0D     42
     126      50                                                00010000D     43
     126       0               2       0                               0D     44
     126      52                                                00010000D     45
     126       0              10       0                               0D     46
     126      62                                                00010000D     47
     126       0              10       0                               0D     48
     126      72                                                00010000D     49
     126       0               2       0                               0D     50
     126      74                                                00010000D     51
     126       0              10       0                               0D     52
     128      84                                                00010000D     53
     128       0     -71      12       0                               0D     54
     128      96                                                00010000D     55
     128       0     -71      12       0                               0D     56
     128     108                                                00010000D     57
     128       0     -71       3       0                               0D     58
     128     111                                                00010000D     59
     128       0     -71      12       0                               0D     60
     128     123                                                00010000D     61
     128       0     -71       3       0                               0D     62
     128     126                                                00010000D     63
     128       0     -71       3       0                               0D     64
     502     129                                                00010000D     65
     502                       3       1                               0D     66
     504     132                                                00010001D     67
     504                       2       1                               0D     68
     406     134                                                00000000D     69
     406                       1      15                               0D     70
     314     135                                                00000200D     71
     314                       1       0                               0D     72
186,3,1,0,0,1,69;                                                      1P      1
514,6,5,1,7,1,9,1,11,1,13,1,15,1;                                      3P      2
510,53,1,1,17;                                                         5P      3
510,55,1,1,19;                                                         7P      4
510,57,2,1,21,23;                                                      9P      5
510,59,1,1,25;                                                        11P      6
510,61,2,1,27,29;                                                     13P      7
510,63,2,1,31,33;                                                     15P      8
508,4,0,67,1,0,0,0,67,2,1,0,0,67,3,0,0,0,67,2,0,0;                    17P      9
508,4,0,67,4,1,0,0,67,5,1,0,0,67,6,0,0,0,67,5,0,0;                    19P     10
508,1,0,67,7,0,0;                                                     21P     11
508,1,0,67,4,0,0;                                                     23P     12
508,4,0,67,7,1,0,0,67,8,1,0,0,67,9,0,0,0,67,8,0,0;                    25P     13
508,1,0,67,9,1,0;                                                     27P     14
508,1,0,67,3,1,0;                                                     29P     15
508,1,0,67,6,1,0;                                                     31P     16
508,1,0,67,1,1,0;                                                     33P     17
126,8,2,0,1,0,0,-3.14159265358979,-3.14159265358979,                  35P     18
-3.14159265358979,-1.5707963267949,-1.5707963267949,0.,0.,            35P     19
1.5707963267949,1.5707963267949,3.14159265358979,                     35P     20
3.14159265358979,3.14159265358979,1.,0.707106781186548,1.,            35P     21
0.707106781186547,1.,0.707106781186547,1.,0.707106781186548,1.,       35P     22
1.75,-2.14313189850787D-16,5.,1.75,-1.75,5.,                          35P     23
-1.07156594925393D-16,-1.75,5.,-1.75,-1.75,5.,-1.75,0.,5.,-1.75,      35P     24
1.75,5.,-1.07156594925393D-16,1.75,5.,1.75,1.75,5.,1.75,              35P     25
2.14313189850787D-16,5.,-3.14159265358979,3.14159265358979,0.,        35P     26
0.,0.;                                                                35P     27
126,1,1,0,0,1,0,0.,0.,2.85714285714286,2.85714285714286,1.,1.,        37P     28
1.75,0.,5.,1.75,0.,0.,0.,2.85714285714286,0.,0.,0.;                   37P     29
126,8,2,0,1,0,0,-3.14159265358979,-3.14159265358979,                  39P     30
-3.14159265358979,-1.5707963267949,-1.5707963267949,0.,0.,            39P     31
1.5707963267949,1.5707963267949,3.14159265358979,                     39P     32
3.14159265358979,3.14159265358979,1.,0.707106781186548,1.,            39P     33
0.707106781186547,1.,0.707106781186547,1.,0.707106781186548,1.,       39P     34
1.75,2.14313189850787D-16,0.,1.75,1.75,0.,-1.07156594925393D-16,      39P     35
1.75,0.,-1.75,1.75,0.,-1.75,0.,0.,-1.75,-1.75,0.,                     39P     36
-1.07156594925393D-16,-1.75,0.,1.75,-1.75,0.,1.75,                    39P     37
-2.14313189850787D-16,0.,-3.14159265358979,3.14159265358979,0.,       39P     38
0.,0.;                                                                39P     39
126,8,2,0,1,0,0,-3.14159265358979,-3.14159265358979,                  41P     40
-3.14159265358979,-1.5707963267949,-1.5707963267949,0.,0.,            41P     41
1.5707963267949,1.5707963267949,3.14159265358979,                     41P     42
3.14159265358979,3.14159265358979,1.,0.707106781186548,1.,            41P     43
0.707106781186548,1.,0.707106781186548,1.,0.707106781186548,1.,       41P     44
3.75,4.59242549680257D-16,1.,3.75,3.75,1.,-2.29621274840129D-16,      41P     45
3.75,1.,-3.75,3.75,1.,-3.75,0.,1.,-3.75,-3.75,1.,                     41P     46
-2.29621274840129D-16,-3.75,1.,3.75,-3.75,1.,3.75,                    41P     47
-4.59242549680257D-16,1.,-3.14159265358979,3.14159265358979,0.,       41P     48
0.,0.;                                                                41P     49
126,1,1,0,0,1,0,-1.06666666666667,-1.06666666666667,0.,0.,1.,1.,      43P     50
3.75,0.,1.,3.75,0.,5.,-1.06666666666667,0.,0.,0.,0.;                  43P     51
126,8,2,0,1,0,0,-3.14159265358979,-3.14159265358979,                  45P     52
-3.14159265358979,-1.5707963267949,-1.5707963267949,0.,0.,            45P     53
1.5707963267949,1.5707963267949,3.14159265358979,                     45P     54
3.14159265358979,3.14159265358979,1.,0.707106781186548,1.,            45P     55
0.707106781186548,1.,0.707106781186548,1.,0.707106781186548,1.,       45P     56
3.75,4.59242549680257D-16,5.,3.75,3.75,5.,-2.29621274840129D-16,      45P     57
3.75,5.,-3.75,3.75,5.,-3.75,0.,5.,-3.75,-3.75,5.,                     45P     58
-2.29621274840129D-16,-3.75,5.,3.75,-3.75,5.,3.75,                    45P     59
-4.59242549680257D-16,5.,-3.14159265358979,3.14159265358979,0.,       45P     60
0.,0.;                                                                45P     61
126,8,2,0,1,0,0,-3.14159265358979,-3.14159265358979,                  47P     62
-3.14159265358979,-1.5707963267949,-1.5707963267949,0.,0.,            47P     63
1.5707963267949,1.5707963267949,3.14159265358979,                     47P     64
3.14159265358979,3.14159265358979,1.,0.707106781186548,1.,            47P     65
0.707106781186548,1.,0.707106781186548,1.,0.707106781186548,1.,       47P     66
8.5,-1.04094977927525D-15,1.,8.5,-8.5,1.,-5.20474889637625D-16,       47P     67
-8.5,1.,-8.5,-8.5,1.,-8.5,0.,1.,-8.5,8.5,1.,                          47P     68
-5.20474889637625D-16,8.5,1.,8.5,8.5,1.,8.5,                          47P     69
1.04094977927525D-15,1.,-3.14159265358979,3.14159265358979,0.,        47P     70
0.,0.;                                                                47P     71
126,1,1,0,0,1,0,-0.117647058823529,-0.117647058823529,0.,0.,1.,       49P     72
1.,8.5,0.,1.,8.5,0.,0.,-0.117647058823529,0.,0.,0.,0.;                49P     73
126,8,2,0,1,0,0,-3.14159265358979,-3.14159265358979,                  51P     74
-3.14159265358979,-1.5707963267949,-1.5707963267949,0.,0.,            51P     75
1.5707963267949,1.5707963267949,3.14159265358979,                     51P     76
3.14159265358979,3.14159265358979,1.,0.707106781186548,1.,            51P     77
0.707106781186548,1.,0.707106781186548,1.,0.707106781186548,1.,       51P     78
8.5,-1.04094977927525D-15,0.,8.5,-8.5,0.,-5.20474889637625D-16,       51P     79
-8.5,0.,-8.5,-8.5,0.,-8.5,0.,0.,-8.5,8.5,0.,                          51P     80
-5.20474889637625D-16,8.5,0.,8.5,8.5,0.,8.5,                          51P     81
1.04094977927525D-15,0.,-3.14159265358979,3.14159265358979,0.,        51P     82
0.,0.;                                                                51P     83
128,1,8,1,2,0,1,0,0,1,0.,0.,2.85714285714286,2.85714285714286,        53P     84
-3.14159265358979,-3.14159265358979,-3.14159265358979,                53P     85
-1.5707963267949,-1.5707963267949,0.,0.,1.5707963267949,              53P     86
1.5707963267949,3.14159265358979,3.14159265358979,                    53P     87
3.14159265358979,1.,1.,0.707106781186548,0.707106781186548,1.,        53P     88
1.,0.707106781186548,0.707106781186548,1.,1.,0.707106781186548,       53P     89
0.707106781186548,1.,1.,0.707106781186548,0.707106781186548,1.,       53P     90
1.,1.75,0.,5.,1.75,0.,0.,1.75,-1.75,5.,1.75,-1.75,0.,0.,-1.75,        53P     91
5.,0.,-1.75,0.,-1.75,-1.75,5.,-1.75,-1.75,0.,-1.75,0.,5.,-1.75,       53P     92
0.,0.,-1.75,1.75,5.,-1.75,1.75,0.,0.,1.75,5.,0.,1.75,0.,1.75,         53P     93
1.75,5.,1.75,1.75,0.,1.75,0.,5.,1.75,0.,0.,0.,2.85714285714286,       53P     94
-3.14159265358979,3.14159265358979;                                   53P     95
128,1,8,1,2,0,1,0,0,1,0.,0.,1.06666666666667,1.06666666666667,        55P     96
-3.14159265358979,-3.14159265358979,-3.14159265358979,                55P     97
-1.5707963267949,-1.5707963267949,0.,0.,1.5707963267949,              55P     98
1.5707963267949,3.14159265358979,3.14159265358979,                    55P     99
3.14159265358979,1.,1.,0.707106781186548,0.707106781186548,1.,        55P    100
1.,0.707106781186548,0.707106781186548,1.,1.,0.707106781186548,       55P    101
0.707106781186548,1.,1.,0.707106781186548,0.707106781186548,1.,       55P    102
1.,3.75,0.,1.,3.75,0.,5.,3.75,-3.75,1.,3.75,-3.75,5.,0.,-3.75,        55P    103
1.,0.,-3.75,5.,-3.75,-3.75,1.,-3.75,-3.75,5.,-3.75,0.,1.,-3.75,       55P    104
0.,5.,-3.75,3.75,1.,-3.75,3.75,5.,0.,3.75,1.,0.,3.75,5.,3.75,         55P    105
3.75,1.,3.75,3.75,5.,3.75,0.,1.,3.75,0.,5.,0.,1.06666666666667,       55P    106
-3.14159265358979,3.14159265358979;                                   55P    107
128,1,1,1,1,0,0,1,0,0,-0.85,-0.85,0.85,0.85,-0.85,-0.85,0.85,         57P    108
0.85,1.,1.,1.,1.,-8.5,-8.5,1.,8.5,-8.5,1.,-8.5,8.5,1.,8.5,8.5,        57P    109
1.,-0.85,0.85,-0.85,0.85;                                             57P    110
128,1,8,1,2,0,1,0,0,1,0.,0.,0.117647058823529,0.117647058823529,      59P    111
-3.14159265358979,-3.14159265358979,-3.14159265358979,                59P    112
-1.5707963267949,-1.5707963267949,0.,0.,1.5707963267949,              59P    113
1.5707963267949,3.14159265358979,3.14159265358979,                    59P    114
3.14159265358979,1.,1.,0.707106781186548,0.707106781186548,1.,        59P    115
1.,0.707106781186548,0.707106781186548,1.,1.,0.707106781186548,       59P    116
0.707106781186548,1.,1.,0.707106781186548,0.707106781186548,1.,       59P    117
1.,8.5,0.,1.,8.5,0.,0.,8.5,8.5,1.,8.5,8.5,0.,0.,8.5,1.,0.,8.5,        59P    118
0.,-8.5,8.5,1.,-8.5,8.5,0.,-8.5,0.,1.,-8.5,0.,0.,-8.5,-8.5,1.,        59P    119
-8.5,-8.5,0.,0.,-8.5,1.,0.,-8.5,0.,8.5,-8.5,1.,8.5,-8.5,0.,8.5,       59P    120
0.,1.,8.5,0.,0.,0.,0.117647058823529,-3.14159265358979,               59P    121
3.14159265358979;                                                     59P    122
128,1,1,1,1,0,0,1,0,0,-0.85,-0.85,0.85,0.85,-0.85,-0.85,0.85,         61P    123
0.85,1.,1.,1.,1.,8.5,-8.5,0.,-8.5,-8.5,0.,8.5,8.5,0.,-8.5,8.5,        61P    124
0.,-0.85,0.85,-0.85,0.85;                                             61P    125
128,1,1,1,1,0,0,1,0,0,-0.375,-0.375,0.375,0.375,-0.375,-0.375,        63P    126
0.375,0.375,1.,1.,1.,1.,-3.75,-3.75,5.,3.75,-3.75,5.,-3.75,3.75,      63P    127
5.,3.75,3.75,5.,-0.375,0.375,-0.375,0.375;                            63P    128
502,6,1.75,2.14313189850787D-16,5.,1.75,2.14313189850787D-16,0.,      65P    129
3.75,4.59242549680257D-16,1.,3.75,4.59242549680257D-16,5.,8.5,        65P    130
1.04094977927525D-15,1.,8.5,1.04094977927525D-15,0.;                  65P    131
504,9,35,65,1,65,1,37,65,1,65,2,39,65,2,65,2,41,65,3,65,3,43,65,      67P    132
3,65,4,45,65,4,65,4,47,65,5,65,5,49,65,5,65,6,51,65,6,65,6;           67P    133
406,1,6HSolid1;                                                       69P    134
314,74.9019607843137,74.9019607843137,74.9019607843137,;              71P    135
S      1G      3D     72P    135                                        T      1
